<svg xmlns="http://www.w3.org/2000/svg" viewBox="0 0 24 24" fill="none" stroke="#3b82f6" stroke-width="2" stroke-linecap="round" stroke-linejoin="round">
  <path d="M6.5 6.5h11" />
  <path d="M6.5 17.5h11" />
  <path d="M6 20v-5" />
  <path d="M18 20v-5" />
  <path d="M6 9V4" />
  <path d="M18 9V4" />
  <path d="M9 12h6" />
  <path d="M9 12v3a3 3 0 0 0 3 3v0a3 3 0 0 0 3-3v-3" />
  <rect x="4" y="5" width="4" height="4" rx="1" fill="#3b82f6" fill-opacity="0.2" />
  <rect x="16" y="5" width="4" height="4" rx="1" fill="#3b82f6" fill-opacity="0.2" />
  <rect x="4" y="15" width="4" height="4" rx="1" fill="#3b82f6" fill-opacity="0.2" />
  <rect x="16" y="15" width="4" height="4" rx="1" fill="#3b82f6" fill-opacity="0.2" />
</svg>